<?xml version="1.0" encoding="UTF-8"?>
<svg xmlns="http://www.w3.org/2000/svg" version="1.1" viewBox="0 0 115.84 35.14">
  <defs>
    <style>
      .cls-1 {
        display: none;
        fill: none;
        stroke: #e6007e;
        stroke-miterlimit: 10;
        stroke-width: 3px;
      }

      .cls-2 {
        fill: #1d1d1b;
      }
    </style>
  </defs>
  <!-- Generator: Adobe Illustrator 28.7.4, SVG Export Plug-In . SVG Version: 1.2.0 Build 166)  -->
  <g>
    <g id="Layer_1">
      <g>
        <g>
          <path class="cls-2" d="M30.72,15.69c0-.34-.19-.53-.53-.53h-.92v-3.49h3.85c1.23,0,1.76.17,1.76,1.4v7.52h.65c.36,0,.77,0,.99-.39l2.02-3.71h4.53l-2.82,4.77c-.46.79-.92,1.04-.92,1.04v.05s.51.19.94,1.04l.8,1.61c.17.34.43.41.92.41h.96v3.49h-3.16c-.89,0-1.37-.14-1.78-.94l-1.78-3.47c-.22-.41-.67-.41-.99-.41h-.36v4.82h-4.17v-13.2Z"/>
          <path class="cls-2" d="M45.19,20.51c0-.34-.19-.53-.53-.53h-.92v-3.49h3.71c1.13,0,1.74.55,1.74,1.4v.17c0,.12-.03.29-.03.29h.05c.58-.96,1.73-2.14,3.93-2.14,2.51,0,4.46,1.16,4.46,4.65v4.02c0,.34.19.53.53.53h.92v3.49h-3.85c-1.23,0-1.76-.53-1.76-1.76v-5.52c0-1.16-.46-1.64-1.37-1.64-1.3,0-2.1.72-2.46,1.78-.17.48-.24,1.04-.24,1.64v5.49h-4.17v-8.38Z"/>
          <path class="cls-2" d="M67.04,16.2c3.93,0,7.03,2.63,7.03,6.53s-3.11,6.46-7.01,6.46-7.01-2.58-7.01-6.46,3.11-6.53,6.99-6.53ZM67.06,25.71c1.52,0,2.82-1.13,2.82-2.99s-1.3-3.06-2.82-3.06-2.82,1.18-2.82,3.06,1.3,2.99,2.82,2.99Z"/>
          <path class="cls-2" d="M75.56,20.36c-.1-.31-.24-.39-.53-.39h-.36v-3.49h3.08c.92,0,1.45.36,1.61,1.18l1.25,6.14c.14.67.14,1.3.14,1.3h.05s.05-.63.22-1.3l1.71-7.28h3.57l1.71,7.28c.17.67.19,1.3.19,1.3h.05s0-.63.14-1.3l1.25-6.14c.17-.82.67-1.18,1.59-1.18h3.08v3.49h-.36c-.29,0-.41.07-.53.39l-2.51,8.53h-4.75l-1.4-5.73c-.17-.67-.24-1.33-.24-1.33h-.05s-.07.65-.24,1.33l-1.4,5.73h-4.79l-2.51-8.53Z"/>
          <path class="cls-2" d="M96.37,15.69c0-.34-.19-.53-.53-.53h-.92v-3.49h3.86c1.23,0,1.76.53,1.76,1.76v11.44c0,.34.19.53.53.53h.92v3.49h-3.85c-1.23,0-1.76-.53-1.76-1.76v-11.44Z"/>
          <path class="cls-2" d="M105.57,30.48c.68,0,1.45-.19,1.86-1.23l.14-.36-3.93-8.53c-.14-.31-.24-.39-.53-.39h-.46v-3.49h3.04c.7,0,1.2.36,1.45,1.01l1.83,5.01c.24.67.46,1.93.46,1.93h.05s.22-1.25.41-1.93l1.37-5.01c.17-.65.82-1.01,1.47-1.01h3.11v3.49h-.46c-.29,0-.46.07-.58.39l-3.76,9.85c-1.06,2.75-3.21,3.73-5.18,3.73-2.15,0-3.49-1.33-3.49-1.33l1.49-2.94s.72.79,1.71.79Z"/>
        </g>
        <g>
          <path class="cls-2" d="M11.98,0C5.15,0,0,5.02,0,11.68c0,3.17,1.13,6.11,3.19,8.3h2.18c2.25,0,4.53.47,6.61,1.36,2.08-.89,4.36-1.36,6.61-1.36h2.18c2.06-2.19,3.19-5.13,3.19-8.3C23.95,5.02,18.81,0,11.98,0ZM11.98,19.08c-3.76,0-6.71-3.25-6.71-7.41s2.95-7.11,6.71-7.11,6.71,3.12,6.71,7.11-2.95,7.41-6.71,7.41Z"/>
          <path class="cls-2" d="M12.18,23.76l-.2.1-.2-.1c-1.98-.98-4.19-1.5-6.4-1.5h-1.96v10.7h1.96c1.82,0,3.62.48,5.2,1.38l1.41.8,1.41-.8c1.58-.9,3.38-1.38,5.2-1.38h1.96v-10.7h-1.96c-2.21,0-4.42.52-6.4,1.5ZM16.62,29.17l-.38.06c-1.41.23-2.78.67-4.06,1.31l-.2.1-.2-.1c-1.28-.63-2.65-1.07-4.06-1.31l-.38-.06v-2.81l.57.14c.94.23,1.84.59,2.67,1.07l1.4.8,1.41-.8c.83-.48,1.73-.84,2.67-1.07l.57-.14v2.81Z"/>
        </g>
      </g>
      <path class="cls-1" d="M32.54,11.58l-.27.15-.27-.15c-1.17-.67-2.48-1.02-3.83-1.02h0v7.31h0c1.34,0,2.66.35,3.83,1.02l.27.15.27-.15c1.17-.67,2.48-1.02,3.83-1.02v-7.31c-1.34,0-2.66.35-3.83,1.02Z"/>
    </g>
  </g>
</svg>